<?xml version="1.0" standalone="no"?>
<!DOCTYPE svg PUBLIC "-//W3C//DTD SVG 20010904//EN"
 "http://www.w3.org/TR/2001/REC-SVG-20010904/DTD/svg10.dtd">
<svg version="1.0" xmlns="http://www.w3.org/2000/svg"
 width="250.000000pt" height="42.000000pt" viewBox="0 0 250.000000 42.000000"
 preserveAspectRatio="xMidYMid meet">
<metadata>
Created by potrace 1.16, written by Peter Selinger 2001-2019
</metadata>
<g transform="translate(0.000000,42.000000) scale(0.100000,-0.100000)"
fill="#000000" stroke="none">
<path d="M548 393 c9 -3 12 -51 12 -189 l0 -184 -277 -3 c-153 -1 277 -3 955
-5 l1232 -2 0 195 0 195 -967 -1 c-533 0 -962 -3 -955 -6z m1086 -123 c20 -7
26 -17 26 -39 0 -16 6 -31 15 -35 29 -11 15 -37 -31 -56 -83 -36 -94 -26 -94
83 0 56 0 57 29 57 16 0 41 -4 55 -10z m214 -20 c29 -27 28 -53 -3 -85 -49
-49 -145 -26 -145 35 0 11 4 20 9 20 5 0 12 9 16 19 6 18 18 22 86 29 8 1 25
-7 37 -18z m182 0 c23 -23 24 -27 9 -68 -12 -34 -46 -47 -105 -40 -37 4 -53
43 -35 87 13 29 21 33 94 39 9 1 26 -7 37 -18z"/>
<path d="M461 236 c-6 -8 -41 -19 -76 -26 -36 -7 -68 -16 -71 -21 -12 -20 -34
-8 -35 19 0 15 -3 21 -6 14 -3 -8 -16 -11 -36 -8 -18 3 -61 8 -97 11 l-65 6
40 -35 c36 -33 63 -42 105 -36 34 4 27 15 -8 12 -27 -3 -45 2 -62 17 l-25 20
56 1 c70 0 89 -17 89 -83 l0 -46 -102 -4 c-57 -1 -4 -3 117 -3 121 0 169 2
108 3 -99 3 -113 6 -113 21 0 33 12 58 32 71 22 13 150 52 156 47 6 -7 -19
-58 -38 -79 -16 -16 -33 -22 -66 -22 -24 0 -44 -3 -44 -7 0 -5 19 -8 43 -8 33
0 50 6 75 29 17 17 32 37 32 45 0 8 4 16 8 18 5 2 12 15 16 31 7 30 -12 38
-33 13z"/>
</g>
</svg>
